<?xml version="1.0" encoding="utf-8"?>
<!-- Generator: Adobe Illustrator 22.0.0, SVG Export Plug-In . SVG Version: 6.00 Build 0)  -->
<svg version="1.1" id="Capa_1" xmlns="http://www.w3.org/2000/svg" xmlns:xlink="http://www.w3.org/1999/xlink" x="0px" y="0px"
	 viewBox="0 0 512 512" style="enable-background:new 0 0 512 512;" xml:space="preserve">
<style type="text/css">
	.st0{fill:#FFF5F5;}
	.st1{fill:#DCE6EB;}
	.st2{fill:#EC5569;}
	.st3{fill:#FF5864;}
	.st4{fill:#E0485A;}
	.st5{fill:#79A1AD;}
</style>
<path class="st0" d="M407.3,8.2H103.6c-50.5,0-91.5,41-91.5,91.5v199.1c0,50.5,41,91.5,91.5,91.5h43.6c2.1,0,3.8,1.7,3.8,3.8v98.2
	c0,11.6,14.2,17.2,22.2,8.8l103.1-109.6c0.7-0.8,1.7-1.2,2.7-1.2h128.3c50.5,0,91.5-41,91.5-91.5V99.7
	C498.7,49.2,457.8,8.2,407.3,8.2z"/>
<path class="st1" d="M189.4,356.2c0-2.2-1.6-4-3.6-4h-42.2c-48.9,0-88.6-43.1-88.6-96.3V46.2c0-9,1.1-17.7,3.3-26
	C30.7,36,12.1,65.7,12.1,99.7v199.1c0,50.5,41,91.5,91.5,91.5h43.6c2.1,0,3.8,1.7,3.8,3.8v98.2c0,11.6,14.2,17.2,22.2,8.8l16.3-17.4
	L189.4,356.2L189.4,356.2z"/>
<path class="st2" d="M358.2,127L358.2,127c-23.2-23.2-60.9-23.2-84.1,0L261,140.1c-3.1,3.1-8.2,3.1-11.3,0l-12.9-12.9
	c-23.2-23.2-60.9-23.2-84.1,0l0,0c-23.2,23.2-23.2,60.9,0,84.1l97,97c3.1,3.1,8.2,3.1,11.3,0l97.2-97.2
	C381.5,187.9,381.5,150.2,358.2,127z"/>
<path class="st3" d="M358.2,127L358.2,127c-23.2-23.2-60.9-23.2-84.1,0L261,140.1c-3.1,3.1-8.2,3.1-11.3,0l-12.9-12.9
	c-23.2-23.2-60.9-23.2-84.1,0l0,0c-23.2,23.2-23.2,60.9,0,84.1l97,97c3.1,3.1,8.2,3.1,11.3,0l97.2-97.2
	C381.5,187.9,381.5,150.2,358.2,127z"/>
<path class="st4" d="M183.8,211.3c-23.2-23.2-23.2-60.9,0-84.1l0,0c7.6-7.6,16.8-12.7,26.5-15.3c-19.9-5.4-42-0.3-57.6,15.3l0,0
	c-23.2,23.2-23.2,60.9,0,84.1l97,97c3.1,3.1,8.2,3.1,11.3,0l9.9-9.9L183.8,211.3z"/>
<g>
	<path class="st5" d="M407.8,0H104.2C82.8,0,62.4,6.7,45.3,19.4c-3.3,2.5-4,7.2-1.6,10.5c2.5,3.3,7.2,4,10.5,1.6
		c14.5-10.8,31.8-16.4,49.9-16.4h303.6c46.3,0,84,37.7,84,84v199.1c0,46.3-37.7,84-84,84H279.5c-3.1,0-6.1,1.3-8.2,3.6L168.2,495.3
		c-2.2,2.4-4.8,1.7-5.8,1.3c-1-0.4-3.3-1.7-3.3-4.9v-98.2c0-6.2-5.1-11.3-11.3-11.3h-43.6c-46.3,0-84-37.7-84-84V99
		c0-17,5.1-33.4,14.7-47.4c2.3-3.4,1.5-8.1-2-10.5c-3.4-2.4-8.1-1.5-10.5,2C11.2,59.6,5.2,78.9,5.2,99v199.1c0,54.6,44.4,99,99,99
		H144v94.5c0,8.4,5,15.8,12.9,18.9c2.5,1,5,1.4,7.5,1.4c5.5,0,10.8-2.2,14.8-6.4l101.9-108.4h126.7c54.6,0,99-44.4,99-99V99
		C506.8,44.4,462.4,0,407.8,0z"/>
	<path class="st5" d="M331,227.5c-2.9,2.9-2.9,7.7,0,10.6c2.9,2.9,7.7,2.9,10.6,0l22.5-22.5c26.1-26.1,26.1-68.6,0-94.8
		c-26.1-26.1-68.6-26.1-94.8,0l-13.1,13.1c0,0-0.1,0.1-0.3,0.1c-0.2,0-0.3-0.1-0.3-0.1l-12.9-12.9c-26.1-26.1-68.6-26.1-94.8,0
		c-26.1,26.1-26.1,68.6,0,94.8l97,97c2.9,2.9,6.8,4.6,11,4.6s8.1-1.6,11-4.6l53.3-53.3c2.9-2.9,2.9-7.7,0-10.6
		c-2.9-2.9-7.7-2.9-10.6,0l-53.3,53.3c0,0-0.1,0.1-0.3,0.1c-0.2,0-0.3-0.1-0.3-0.1l-97-97c-20.3-20.3-20.3-53.2,0-73.5
		s53.2-20.3,73.5,0l12.9,12.9c2.9,2.9,6.8,4.6,11,4.6c4.2,0,8.1-1.6,11-4.6l13.1-13.1c20.3-20.3,53.2-20.3,73.5,0
		c20.3,20.3,20.3,53.2,0,73.5L331,227.5z"/>
</g>
</svg>
