<?xml version="1.0" encoding="utf-8"?>
<!-- Generator: Adobe Illustrator 22.0.0, SVG Export Plug-In . SVG Version: 6.00 Build 0)  -->
<svg version="1.1" id="Capa_1" xmlns="http://www.w3.org/2000/svg" xmlns:xlink="http://www.w3.org/1999/xlink" x="0px" y="0px"
	 viewBox="0 0 482 136" style="enable-background:new 0 0 482 136;" xml:space="preserve">
<style type="text/css">
	.st0{fill:#EC5569;}
	.st1{fill:#E63950;}
	.st2{fill:#FFF5F5;}
	.st3{fill:#DCE6EB;}
	.st4{fill:none;}
	.st5{font-family:'CaviarDreams';}
	.st6{font-size:48px;}
</style>
<g>
	<path class="st0" d="M37.6,25.8h55.9c9.3,0,16.8,7.6,16.8,17v37c0,9.4-7.5,17-16.8,17h-8c-0.4,0-0.7,0.3-0.7,0.7v18.3
		c0,2.2-2.6,3.2-4.1,1.6L61.7,97c-0.1-0.1-0.3-0.2-0.5-0.2H37.6c-9.3,0-16.8-7.6-16.8-17v-37C20.7,33.4,28.3,25.8,37.6,25.8z"/>
	<path class="st1" d="M77.6,90.4c0-0.4,0.3-0.7,0.7-0.7h7.8c9,0,16.3-8,16.3-17.9v-39c0-1.7-0.2-3.3-0.6-4.8
		c5.1,2.9,8.5,8.4,8.5,14.8v37c0,9.4-7.5,17-16.8,17h-8c-0.4,0-0.7,0.3-0.7,0.7v18.3c0,2.2-2.6,3.2-4.1,1.6l-3-3.2L77.6,90.4
		L77.6,90.4z"/>
	<path class="st0" d="M46.6,47.8L46.6,47.8c4.3-4.3,11.2-4.3,15.5,0l2.4,2.4c0.6,0.6,1.5,0.6,2.1,0l2.4-2.4c4.3-4.3,11.2-4.3,15.5,0
		l0,0c4.3,4.3,4.3,11.3,0,15.6l-17.9,18c-0.6,0.6-1.5,0.6-2.1,0L46.6,63.5C42.3,59.1,42.3,52.1,46.6,47.8z"/>
	<path class="st2" d="M46.6,47.8L46.6,47.8c4.3-4.3,11.2-4.3,15.5,0l2.4,2.4c0.6,0.6,1.5,0.6,2.1,0l2.4-2.4c4.3-4.3,11.2-4.3,15.5,0
		l0,0c4.3,4.3,4.3,11.3,0,15.6l-17.9,18c-0.6,0.6-1.5,0.6-2.1,0L46.6,63.5C42.3,59.1,42.3,52.1,46.6,47.8z"/>
	<path class="st3" d="M78.7,63.5c4.3-4.3,4.3-11.3,0-15.6l0,0c-1.4-1.4-3.1-2.4-4.9-2.9c3.7-1,7.7,0,10.6,2.9l0,0
		c4.3,4.3,4.3,11.3,0,15.6l-17.9,18c-0.6,0.6-1.5,0.6-2.1,0l-1.8-1.8L78.7,63.5z"/>
</g>
<rect x="126.5" y="44.1" class="st4" width="338" height="60"/>
<text transform="matrix(1 0 0 1 126.4814 81.6034)" class="st5 st6">Pun in a Million.</text>
</svg>
